<svg version="1.1" id="Layer_1" xmlns="http://www.w3.org/2000/svg" xmlns:xlink="http://www.w3.org/1999/xlink" x="0px" y="0px"
	 width="100%" viewBox="0 0 256 256" enable-background="new 0 0 256 256" xml:space="preserve">
<path fill="#040C25" opacity="1.000000" stroke="none" 
	d="
M142.000000,257.000000 
	C94.666672,257.000000 47.833340,257.000000 1.000006,257.000000 
	C1.000004,171.666672 1.000004,86.333351 1.000002,1.000018 
	C86.333321,1.000012 171.666641,1.000012 257.000000,1.000006 
	C257.000000,86.333313 257.000000,171.666626 257.000000,256.999969 
	C218.833328,257.000000 180.666672,257.000000 142.000000,257.000000 
M194.718628,150.209869 
	C195.549881,150.230927 196.383652,150.304611 197.212006,150.264999 
	C206.624435,149.814651 213.892029,143.996307 216.041718,135.210999 
	C218.079407,126.883530 214.217087,117.834305 206.696671,113.315819 
	C199.237762,108.834320 189.816284,109.786140 183.104309,115.821701 
	C180.755951,117.933411 178.678986,120.344521 176.365143,122.497520 
	C170.638931,127.825676 163.871613,129.944534 156.656418,126.625977 
	C152.727707,124.818993 149.377121,121.480019 146.190063,118.393867 
	C139.920883,112.323189 132.867508,108.465515 124.164581,111.539223 
	C120.113274,112.970062 115.914680,115.620270 113.194260,118.891495 
	C102.988487,131.163635 89.828835,130.863617 79.586411,119.028381 
	C76.961807,115.995621 73.305557,113.384758 69.597420,111.853241 
	C60.297066,108.012047 49.816109,112.457802 45.070431,121.566139 
	C40.536121,130.268799 43.214428,140.999985 51.382645,146.857300 
	C59.283833,152.523148 71.205498,151.488434 77.676720,143.783035 
	C88.084259,131.390579 101.220352,127.130127 114.706139,143.661270 
	C114.811317,143.790207 114.921707,143.915588 115.037392,144.035141 
	C123.233322,152.505066 135.702637,152.618149 143.997665,144.292816 
	C145.877563,142.406067 147.698502,140.458847 149.616547,138.612152 
	C157.665207,130.862946 168.926315,131.005814 176.779236,138.929001 
	C178.419540,140.583984 179.803207,142.653580 181.733734,143.826889 
	C185.610458,146.183044 189.782730,148.052948 194.718628,150.209869 
M149.827103,55.745964 
	C146.739471,52.967842 143.909698,49.813622 140.513702,47.485291 
	C131.883881,41.568630 120.836533,43.142273 114.337646,50.827454 
	C107.752869,58.614201 108.072998,70.386391 115.069458,77.738731 
	C122.057198,85.081932 133.097839,86.066948 141.392761,79.798752 
	C144.562057,77.403816 147.277084,74.406052 150.187943,71.671120 
	C157.819626,64.500671 168.627411,64.493607 176.255676,71.719727 
	C178.792328,74.122643 181.072159,76.809608 183.704239,79.096390 
	C191.060333,85.487434 201.820251,85.486183 209.403687,79.257133 
	C216.352859,73.549065 218.566406,63.214401 214.553421,55.213821 
	C210.138031,46.410954 200.118683,41.499149 191.133331,45.044422 
	C186.101913,47.029617 181.605911,50.914036 177.526520,54.659264 
	C168.499893,62.946487 160.013962,63.663883 149.827103,55.745964 
M126.282822,177.641113 
	C119.207558,178.520203 115.084671,183.788208 110.491447,188.320602 
	C101.722931,196.972992 90.805603,197.038223 82.213692,188.415863 
	C80.568230,186.764572 78.976883,185.059494 77.341644,183.397858 
	C69.585815,175.516846 56.942154,175.053192 49.438942,182.367447 
	C41.115795,190.480942 40.587902,202.199341 48.168236,210.575027 
	C55.590347,218.775894 68.031601,219.327682 76.388275,211.752548 
	C78.852798,209.518524 81.044121,206.981674 83.523422,204.765701 
	C90.905594,198.167618 99.755928,197.755646 107.590042,203.801987 
	C110.869781,206.333298 113.683228,209.460556 116.889938,212.096329 
	C124.345543,218.224472 134.132355,218.714935 141.355453,213.490967 
	C149.132812,207.866135 151.927505,198.414062 148.436005,189.543350 
	C145.166534,181.236755 136.785706,176.486252 126.282822,177.641113 
M49.207020,77.268341 
	C50.615814,78.427719 51.927444,79.737473 53.449764,80.721169 
	C61.162323,85.704849 71.153511,84.732468 77.866730,78.436699 
	C84.686180,72.041275 86.024338,62.124821 81.194801,53.773796 
	C76.645767,45.907822 67.209328,42.246830 58.420288,44.821522 
	C46.156696,48.414047 38.775787,64.314568 49.207020,77.268341 
M184.206909,180.593719 
	C176.928055,185.747177 173.980911,192.922256 175.859131,201.448776 
	C177.591797,209.314514 182.766083,214.722458 190.817368,216.524033 
	C199.033051,218.362411 205.980484,215.758255 211.159317,209.107925 
	C217.076675,201.509201 216.605301,191.387466 210.225586,183.893295 
	C204.204742,176.820694 194.261780,175.362228 184.206909,180.593719 
z"/>
<path fill="#FAF3EA" opacity="1.000000" stroke="none" 
	d="
M194.275818,150.166687 
	C189.782730,148.052948 185.610458,146.183044 181.733734,143.826889 
	C179.803207,142.653580 178.419540,140.583984 176.779236,138.929001 
	C168.926315,131.005814 157.665207,130.862946 149.616547,138.612152 
	C147.698502,140.458847 145.877563,142.406067 143.997665,144.292816 
	C135.702637,152.618149 123.233322,152.505066 115.037392,144.035141 
	C114.921707,143.915588 114.811317,143.790207 114.706139,143.661270 
	C101.220352,127.130127 88.084259,131.390579 77.676720,143.783035 
	C71.205498,151.488434 59.283833,152.523148 51.382645,146.857300 
	C43.214428,140.999985 40.536121,130.268799 45.070431,121.566139 
	C49.816109,112.457802 60.297066,108.012047 69.597420,111.853241 
	C73.305557,113.384758 76.961807,115.995621 79.586411,119.028381 
	C89.828835,130.863617 102.988487,131.163635 113.194260,118.891495 
	C115.914680,115.620270 120.113274,112.970062 124.164581,111.539223 
	C132.867508,108.465515 139.920883,112.323189 146.190063,118.393867 
	C149.377121,121.480019 152.727707,124.818993 156.656418,126.625977 
	C163.871613,129.944534 170.638931,127.825676 176.365143,122.497520 
	C178.678986,120.344521 180.755951,117.933411 183.104309,115.821701 
	C189.816284,109.786140 199.237762,108.834320 206.696671,113.315819 
	C214.217087,117.834305 218.079407,126.883530 216.041718,135.210999 
	C213.892029,143.996307 206.624435,149.814651 197.212006,150.264999 
	C196.383652,150.304611 195.549881,150.230927 194.275818,150.166687 
z"/>
<path fill="#F9F2EA" opacity="1.000000" stroke="none" 
	d="
M150.089432,55.994823 
	C160.013962,63.663883 168.499893,62.946487 177.526520,54.659264 
	C181.605911,50.914036 186.101913,47.029617 191.133331,45.044422 
	C200.118683,41.499149 210.138031,46.410954 214.553421,55.213821 
	C218.566406,63.214401 216.352859,73.549065 209.403687,79.257133 
	C201.820251,85.486183 191.060333,85.487434 183.704239,79.096390 
	C181.072159,76.809608 178.792328,74.122643 176.255676,71.719727 
	C168.627411,64.493607 157.819626,64.500671 150.187943,71.671120 
	C147.277084,74.406052 144.562057,77.403816 141.392761,79.798752 
	C133.097839,86.066948 122.057198,85.081932 115.069458,77.738731 
	C108.072998,70.386391 107.752869,58.614201 114.337646,50.827454 
	C120.836533,43.142273 131.883881,41.568630 140.513702,47.485291 
	C143.909698,49.813622 146.739471,52.967842 150.089432,55.994823 
z"/>
<path fill="#F9F2EA" opacity="1.000000" stroke="none" 
	d="
M126.688484,177.543640 
	C136.785706,176.486252 145.166534,181.236755 148.436005,189.543350 
	C151.927505,198.414062 149.132812,207.866135 141.355453,213.490967 
	C134.132355,218.714935 124.345543,218.224472 116.889938,212.096329 
	C113.683228,209.460556 110.869781,206.333298 107.590042,203.801987 
	C99.755928,197.755646 90.905594,198.167618 83.523422,204.765701 
	C81.044121,206.981674 78.852798,209.518524 76.388275,211.752548 
	C68.031601,219.327682 55.590347,218.775894 48.168236,210.575027 
	C40.587902,202.199341 41.115795,190.480942 49.438942,182.367447 
	C56.942154,175.053192 69.585815,175.516846 77.341644,183.397858 
	C78.976883,185.059494 80.568230,186.764572 82.213692,188.415863 
	C90.805603,197.038223 101.722931,196.972992 110.491447,188.320602 
	C115.084671,183.788208 119.207558,178.520203 126.688484,177.543640 
z"/>
<path fill="#FAF3EA" opacity="1.000000" stroke="none" 
	d="
M48.984818,76.980568 
	C38.775787,64.314568 46.156696,48.414047 58.420288,44.821522 
	C67.209328,42.246830 76.645767,45.907822 81.194801,53.773796 
	C86.024338,62.124821 84.686180,72.041275 77.866730,78.436699 
	C71.153511,84.732468 61.162323,85.704849 53.449764,80.721169 
	C51.927444,79.737473 50.615814,78.427719 48.984818,76.980568 
z"/>
<path fill="#FAF3EB" opacity="1.000000" stroke="none" 
	d="
M184.515076,180.380447 
	C194.261780,175.362228 204.204742,176.820694 210.225586,183.893295 
	C216.605301,191.387466 217.076675,201.509201 211.159317,209.107925 
	C205.980484,215.758255 199.033051,218.362411 190.817368,216.524033 
	C182.766083,214.722458 177.591797,209.314514 175.859131,201.448776 
	C173.980911,192.922256 176.928055,185.747177 184.515076,180.380447 
z"/>
</svg>